{"title":"Born.To.Kill.The.Night.Stalker.Richard.Ramirez.WEBRip.P2P4FREE","uid":8535940,"size":129369260,"categoryP":"video","categoryS":"tv_shows","magnet":"?xt=urn:btih:95f7437a99687553802cc4fbae5827c6cd58cd66&amp;dn=Born.To.Kill.The.Night.Stalker.Richard.Ramirez.WEBRip.P2P4FREE&amp;tr=udp%3A%2F%2Ftracker.openbittorrent.com%3A80&amp;tr=udp%3A%2F%2Fopen.demonii.com%3A1337&amp;tr=udp%3A%2F%2Ftracker.coppersurfer.tk%3A6969&amp;tr=udp%3A%2F%2Fexodus.desync.com%3A6969","seeders":1,"leechers":0,"uploader":"P2P4FREE","files":1,"time":1370270533,"description":"General\n------------------------------------------------------------------\nFormat                                   : MPEG-4\nFormat profile                           : Base Media / Version 2\nCodec ID                                 : mp42\nFile size                                : 123 MiB\nDuration                                 : 43mn 54s\nOverall bit rate mode                    : Variable\nOverall bit rate                         : 393 Kbps\n\nVideo\n------------------------------------------------------------------\nID                                       : 1\nFormat                                   : AVC\nFormat/Info                              : Advanced Video Codec\nFormat profile                           : &lt;a class=&quot;__cf_email__&quot; href=&quot;/cdn-cgi/l/email-protection&quot; data-cfemail=&quot;98daf9ebfdf4f1f6fdd8d4aab6aa&quot;&gt;[email&amp;#160;protected]&lt;/a&gt;&lt;script cf-hash='f9e31' type=&quot;text/javascript&quot;&gt;\n/* &lt;![CDATA[ */!function(){try{var t=&quot;currentScript&quot;in document?document.currentScript:function(){for(var t=document.getElementsByTagName(&quot;script&quot;),e=t.length;e--;)if(t[e].getAttribute(&quot;cf-hash&quot;))return t[e]}();if(t&amp;&amp;t.previousSibling){var e,r,n,i,c=t.previousSibling,a=c.getAttribute(&quot;data-cfemail&quot;);if(a){for(e=&quot;&quot;,r=parseInt(a.substr(0,2),16),n=2;a.length-n;n+=2)i=parseInt(a.substr(n,2),16)^r,e+=String.fromCharCode(i);e=document.createTextNode(e),c.parentNode.replaceChild(e,c)}}}catch(u){}}();/* ]]&gt; */&lt;/script&gt;\nFormat settings, CABAC                   : No\nFormat settings, ReFrames                : 1 frame\nCodec ID                                 : avc1\nCodec ID/Info                            : Advanced Video Coding\nDuration                                 : 43mn 54s\nBit rate                                 : 294 Kbps\nMaximum bit rate                         : 1 686 Kbps\nWidth                                    : 608 pixels\nHeight                                   : 336 pixels\nDisplay aspect ratio                     : 16:9\nFrame rate mode                          : Constant\nFrame rate                               : 25.000 fps\nColor space                              : YUV\nChroma subsampling                       : 4:2:0\nBit depth                                : 8 bits\nScan type                                : Progressive\nBits/(Pixel*Frame)                       : 0.058\nStream size                              : 92.5 MiB (75%)\n\nAudio\n------------------------------------------------------------------\nID                                       : 2\nFormat                                   : AAC\nFormat/Info                              : Advanced Audio Codec\nFormat profile                           : LC\nCodec ID                                 : 40\nDuration                                 : 43mn 54s\nBit rate mode                            : Variable\nBit rate                                 : 96.0 Kbps\nMaximum bit rate                         : 104 Kbps\nChannel(s)                               : 2 channels\nChannel positions                        : Front: L R\nSampling rate                            : 44.1 KHz\nCompression mode                         : Lossy\nStream size                              : 30.1 MiB (24%)\n\n------------------------------------------------------------------\n &lt;a href=&quot;\nhttp://www.crimeandinvestigation.co.uk/shows/born-to-kill/&quot; rel=&quot;nofollow&quot; target=&quot;_NEW&quot;&gt;\nhttp://www.crimeandinvestigation.co.uk/shows/born-to-kill/&lt;/a&gt;\n\n------------------------------------------------------------------\n\nSCREENS\n------------------------------------------------------------------\n &lt;a href=&quot;\nhttp://share.pho.to/2SU24/original&quot; rel=&quot;nofollow&quot; target=&quot;_NEW&quot;&gt;\nhttp://share.pho.to/2SU24/original&lt;/a&gt; &lt;a href=&quot;\nhttp://share.pho.to/2SU26/original&quot; rel=&quot;nofollow&quot; target=&quot;_NEW&quot;&gt;\nhttp://share.pho.to/2SU26/original&lt;/a&gt; &lt;a href=&quot;\nhttp://share.pho.to/2SU2D/original&quot; rel=&quot;nofollow&quot; target=&quot;_NEW&quot;&gt;\nhttp://share.pho.to/2SU2D/original&lt;/a&gt; &lt;a href=&quot;\nhttp://share.pho.to/2SU2E/original&quot; rel=&quot;nofollow&quot; target=&quot;_NEW&quot;&gt;\nhttp://share.pho.to/2SU2E/original&lt;/a&gt; &lt;a href=&quot;\nhttp://share.pho.to/2SU2j/original&quot; rel=&quot;nofollow&quot; target=&quot;_NEW&quot;&gt;\nhttp://share.pho.to/2SU2j/original&lt;/a&gt; &lt;a href=&quot;\nhttp://share.pho.to/2SU2k/original&quot; rel=&quot;nofollow&quot; target=&quot;_NEW&quot;&gt;\nhttp://share.pho.to/2SU2k/original&lt;/a&gt; &lt;a href=&quot;\nhttp://share.pho.to/2SU2o/original&quot; rel=&quot;nofollow&quot; target=&quot;_NEW&quot;&gt;\nhttp://share.pho.to/2SU2o/original&lt;/a&gt; &lt;a href=&quot;\nhttp://share.pho.to/2SU2s/original&quot; rel=&quot;nofollow&quot; target=&quot;_NEW&quot;&gt;\nhttp://share.pho.to/2SU2s/original&lt;/a&gt;\n\n------------------------------------------------------------------\n\nEnjoy ;)","torrent":{"xt":"urn:btih:95f7437a99687553802cc4fbae5827c6cd58cd66","amp;dn":"Born.To.Kill.The.Night.Stalker.Richard.Ramirez.WEBRip.P2P4FREE","amp;tr":["udp%3A%2F%2Ftracker.openbittorrent.com%3A80","udp%3A%2F%2Fopen.demonii.com%3A1337","udp%3A%2F%2Ftracker.coppersurfer.tk%3A6969","udp%3A%2F%2Fexodus.desync.com%3A6969"],"infoHash":"95f7437a99687553802cc4fbae5827c6cd58cd66","infoHashBuffer":{"type":"Buffer","data":[149,247,67,122,153,104,117,83,128,44,196,251,174,88,39,198,205,88,205,102]},"announce":[],"urlList":[]}}